<?xml version="1.0" encoding="UTF-8"?>
<svg xmlns="http://www.w3.org/2000/svg" xmlns:xlink="http://www.w3.org/1999/xlink" viewBox="0 0 64 64" width="64px" height="64px">
<g id="surface4079490">
<path style="fill:none;stroke-width:5.375;stroke-linecap:butt;stroke-linejoin:round;stroke:rgb(43.921569%,43.921569%,43.921569%);stroke-opacity:1;stroke-miterlimit:10;" d="M 145.125 119.467773 L 86 158.5625 L 26.875 119.467773 L 26.875 34.9375 L 59.125 34.9375 L 86 13.4375 L 112.875 34.9375 L 145.125 34.9375 Z M 145.125 119.467773 " transform="matrix(0.372093,0,0,0.372093,0,0)"/>
<path style="fill:none;stroke-width:5.375;stroke-linecap:butt;stroke-linejoin:round;stroke:rgb(43.921569%,43.921569%,43.921569%);stroke-opacity:1;stroke-miterlimit:10;" d="M 131.6875 48.375 L 131.6875 112.255615 L 86 142.468994 L 40.3125 112.255615 L 40.3125 48.375 L 59.125 48.375 C 62.19043 48.375 65.140381 47.325195 67.512939 45.414551 L 86 30.633301 L 104.487061 45.414551 C 106.859619 47.325195 109.80957 48.375 112.875 48.375 Z M 131.6875 48.375 " transform="matrix(0.372093,0,0,0.372093,0,0)"/>
<path style=" stroke:none;fill-rule:nonzero;fill:rgb(65.882355%,65.882355%,65.882355%);fill-opacity:1;" d="M 43 26 L 41 40 L 23 40 L 21 26 L 24 26 L 25 30 L 27 30 L 29 24 L 35 24 L 37 30 L 39 30 L 40 26 Z M 43 26 "/>
</g>
</svg>
