<?xml version="1.0" encoding="UTF-8"?>
<svg xmlns="http://www.w3.org/2000/svg" xmlns:xlink="http://www.w3.org/1999/xlink" viewBox="0 0 30 30" width="30px" height="30px">
<g id="surface114418943">
<path style=" stroke:none;fill-rule:nonzero;fill:rgb(100%,100%,100%);fill-opacity:1;" d="M 17.660156 2 C 15.566406 2 14 3.714844 14 5.660156 L 14 9.035156 C 11.25 9.179688 8.734375 9.914062 6.726562 11.0625 C 5.953125 10.320312 4.917969 9.992188 3.914062 9.992188 C 2.824219 9.992188 1.710938 10.371094 0.941406 11.234375 L 0.925781 11.253906 L 0.90625 11.273438 C 0.167969 12.195312 -0.121094 13.429688 0.0742188 14.652344 C 0.253906 15.769531 0.902344 16.894531 2.027344 17.628906 C 2.019531 17.753906 2 17.875 2 18 C 2 22.960938 7.832031 27 15 27 C 22.167969 27 28 22.960938 28 18 C 28 17.875 27.980469 17.753906 27.972656 17.628906 C 29.097656 16.894531 29.746094 15.769531 29.925781 14.652344 C 30.121094 13.429688 29.832031 12.195312 29.09375 11.273438 L 29.078125 11.253906 L 29.058594 11.234375 C 28.289062 10.371094 27.175781 9.992188 26.089844 9.992188 C 25.082031 9.992188 24.046875 10.320312 23.273438 11.0625 C 21.265625 9.914062 18.75 9.179688 16 9.035156 L 16 5.660156 C 16 4.683594 16.566406 4 17.664062 4 C 18.183594 4 18.816406 4.261719 19.8125 4.609375 C 20.648438 4.902344 21.742188 5.203125 23.140625 5.289062 C 23.476562 6.277344 24.402344 7 25.5 7 C 26.875 7 28 5.875 28 4.5 C 28 3.125 26.875 2 25.5 2 C 24.5625 2 23.746094 2.53125 23.320312 3.300781 C 22.125 3.234375 21.25 2.996094 20.472656 2.722656 C 19.570312 2.40625 18.738281 2 17.664062 2 Z M 3.914062 11.992188 C 4.308594 11.992188 4.683594 12.09375 4.992188 12.265625 C 3.886719 13.183594 3.050781 14.261719 2.546875 15.4375 C 2.277344 15.105469 2.113281 14.734375 2.050781 14.335938 C 1.941406 13.664062 2.144531 12.964844 2.464844 12.550781 C 2.765625 12.226562 3.316406 11.992188 3.914062 11.992188 Z M 26.085938 11.992188 C 26.683594 11.992188 27.234375 12.226562 27.539062 12.550781 C 27.855469 12.964844 28.058594 13.664062 27.949219 14.335938 C 27.886719 14.734375 27.722656 15.105469 27.453125 15.4375 C 26.949219 14.261719 26.113281 13.183594 25.007812 12.265625 C 25.316406 12.097656 25.691406 11.992188 26.085938 11.992188 Z M 10 14 C 11.105469 14 12 14.894531 12 16 C 12 17.105469 11.105469 18 10 18 C 8.894531 18 8 17.105469 8 16 C 8 14.894531 8.894531 14 10 14 Z M 20 14 C 21.105469 14 22 14.894531 22 16 C 22 17.105469 21.105469 18 20 18 C 18.894531 18 18 17.105469 18 16 C 18 14.894531 18.894531 14 20 14 Z M 20.238281 19.53125 C 19.597656 21.398438 17.554688 23 15 23 C 12.445312 23 10.402344 21.402344 9.761719 19.667969 C 10.910156 20.601562 12.828125 21.265625 15 21.265625 C 17.171875 21.265625 19.089844 20.601562 20.238281 19.53125 Z M 20.238281 19.53125 "/>
</g>
</svg>
